HIERARCHY
ROOT root
{
	OFFSET	0	13.1	24.9
	CHANNELS 6  Xposition Yposition Zposition Xrotation Yrotation Zrotation
	JOINT spine_1
	{
		OFFSET	0	9.99999	0
		CHANNELS 3  Xrotation Yrotation Zrotation
		JOINT spine_2
		{
			OFFSET	0	112	-10
			CHANNELS 3  Xrotation Yrotation Zrotation
			JOINT spine_3
			{
				OFFSET	0	206.5	19.3
				CHANNELS 3  Xrotation Yrotation Zrotation
				JOINT spine_4
				{
					OFFSET	0	110.4	14.6
					CHANNELS 3  Xrotation Yrotation Zrotation
					JOINT neck_1
					{
						OFFSET	0	71.8	-50.3
						CHANNELS 3  Xrotation Yrotation Zrotation
						JOINT neck_2
						{
							OFFSET	0	86.2	-25.8
							CHANNELS 3  Xrotation Yrotation Zrotation
							JOINT head_ee
							{
								OFFSET	0	179.8	-8.7
								CHANNELS 3  Xrotation Yrotation Zrotation
								End Site
								{
									OFFSET	1	0	0
								}
							}
						}
					}
					JOINT left_clavicle
					{
						OFFSET	-43.2	22.4	-70.8
						CHANNELS 3  Xrotation Yrotation Zrotation
						JOINT left_shoulder
						{
							OFFSET	-93.9	-5.79999	48.7
							CHANNELS 3  Xrotation Yrotation Zrotation
							JOINT left_elbow
							{
								OFFSET	-291.4	-30.8	15.2
								CHANNELS 3  Xrotation Yrotation Zrotation
								JOINT left_lowarm_twist
								{
									OFFSET	-110.7	-3.89999	13.6
									CHANNELS 3  Xrotation Yrotation Zrotation
									JOINT left_hand
									{
										OFFSET	-110.7	-3.89999	13.6
										CHANNELS 3  Xrotation Yrotation Zrotation
										JOINT left_ee
										{
											OFFSET	-80.8	-5.10001	12.1
											CHANNELS 3  Xrotation Yrotation Zrotation
											End Site
											{
												OFFSET	1	0	0
											}
										}
									}
								}
							}
						}
					}
					JOINT right_clavicle
					{
						OFFSET	43.2	22.4	-70.8
						CHANNELS 3  Xrotation Yrotation Zrotation
						JOINT right_shoulder
						{
							OFFSET	93.9	-5.79999	48.7
							CHANNELS 3  Xrotation Yrotation Zrotation
							JOINT right_elbow
							{
								OFFSET	291.4	-30.8	15.2
								CHANNELS 3  Xrotation Yrotation Zrotation
								JOINT right_lowarm_twist
								{
									OFFSET	110.7	-3.89999	13.6
									CHANNELS 3  Xrotation Yrotation Zrotation
									JOINT right_hand
									{
										OFFSET	110.7	-3.89999	13.6
										CHANNELS 3  Xrotation Yrotation Zrotation
										JOINT right_ee
										{
											OFFSET	80.8	-5.10001	12.1
											CHANNELS 3  Xrotation Yrotation Zrotation
											End Site
											{
												OFFSET	1	0	0
											}
										}
									}
								}
							}
						}
					}
				}
			}
		}
	}
	JOINT left_hip
	{
		OFFSET	-82.8	-127.5	0.300001
		CHANNELS 3  Xrotation Yrotation Zrotation
		JOINT left_knee
		{
			OFFSET	-28.2	-396.7	2.2
			CHANNELS 3  Xrotation Yrotation Zrotation
			JOINT left_ankle
			{
				OFFSET	-11.7	-411.3	35.4
				CHANNELS 3  Xrotation Yrotation Zrotation
				JOINT left_toes
				{
					OFFSET	0	-60	-88.6
					CHANNELS 3  Xrotation Yrotation Zrotation
					JOINT left_foot_ee
					{
						OFFSET	-22.5	-16.5	-42.2
						CHANNELS 3  Xrotation Yrotation Zrotation
						End Site
						{
							OFFSET	1	0	0
						}
					}
				}
			}
		}
	}
	JOINT right_hip
	{
		OFFSET	82.8	-127.5	0.300001
		CHANNELS 3  Xrotation Yrotation Zrotation
		JOINT right_knee
		{
			OFFSET	28.2	-396.7	2.2
			CHANNELS 3  Xrotation Yrotation Zrotation
			JOINT right_ankle
			{
				OFFSET	11.7	-411.3	35.4
				CHANNELS 3  Xrotation Yrotation Zrotation
				JOINT right_toes
				{
					OFFSET	0	-60	-88.6
					CHANNELS 3  Xrotation Yrotation Zrotation
					JOINT right_foot_ee
					{
						OFFSET	22.5	-16.5	-42.2
						CHANNELS 3  Xrotation Yrotation Zrotation
						End Site
						{
							OFFSET	1	0	0
						}
					}
				}
			}
		}
	}
}
MOTION
Frames: 12
Frame Time: 0.02
2939.31428477 681.591 -1910.68658852 -23.5860007064 36.1066172241 25.8901783493 9.27243 -0.934432 -3.27784 9.27811 -0.724081 -3.33057 9.30787 -0.560122 -3.362 9.29374 -1.08378 -3.23157 -13.0058 -4.48716 8.43865 -12.9213 -13.8273 6.74704 -0.0 0.0 -0.0 9.9137 -5.31832 19.6423 -10.258 -13.3582 67.0034 0.818941 -22.0812 0.159791 85.1654 -4.44634 -8.87373 3.27962 1.62928 23.1483 -0.0 0.0 -0.0 -0.247128 -19.3316 -1.88993 90.3486 -65.4951 13.6364 0.160332 4.54124 -0.00635729 79.3303 3.76155 8.57157 -3.4785 -0.150062 23.8624 0.0 0.0 0.0 37.3043 19.4382 -13.3791 -20.6593 0.287218 3.14017 39.028 -15.1877 -5.08508 1.05904 -0.0 -0.0 -0.0 0.0 -0.0 45.1593 -3.38035 -8.61065 -68.9005 3.23373 -9.42836 21.3999 -8.31736 2.9035 33.192 -0.0 -0.0 0.0 0.0 0.0 
2927.83945782 688.015 -1922.66889415 -24.5717514035 33.3135384201 26.3696493007 9.57466 -0.768644 -3.26476 9.58041 -0.559458 -3.30699 9.59995 -0.413555 -3.32836 9.5857 -0.933746 -3.22147 -11.7024 -5.74184 7.96678 -11.6401 -16.0356 6.1052 -0.0 0.0 -0.0 9.16229 -2.68524 18.0115 -6.35427 -12.0323 66.2018 0.780252 -21.1321 0.145544 85.1903 -4.44933 -8.87487 3.27565 11.3486 26.5569 -0.0 0.0 -0.0 0.943551 -19.374 -3.66291 90.3437 -63.2509 17.3364 0.183399 5.19123 -0.008314 82.7004 4.15335 8.7546 -3.91529 -1.46224 26.3833 0.0 0.0 0.0 37.0855 21.8334 -14.8261 -17.5777 0.316608 2.66831 38.7516 -16.8847 -5.11782 -1.13663 0.0 0.0 -0.0 0.0 -0.0 47.764 -1.73332 -10.9657 -66.8282 2.98063 -9.23253 19.7701 -10.1827 2.70595 36.8772 -0.0 -0.0 0.0 0.0 0.0 
2920.71643814 688.015 -1915.4612631 -25.03505452 34.796686298 27.1969117754 9.57466 -0.768644 -3.26476 9.58041 -0.559458 -3.30699 9.59995 -0.413555 -3.32836 9.5857 -0.933746 -3.22147 -11.7024 -5.74184 7.96678 -11.6401 -16.0356 6.1052 -0.0 0.0 -0.0 9.16229 -2.68524 18.0115 -6.35427 -12.0323 66.2018 0.780252 -21.1321 0.145544 85.1903 -4.44933 -8.87487 3.27565 11.3486 26.5569 -0.0 0.0 -0.0 0.943551 -19.374 -3.66291 90.3437 -63.2509 17.3364 0.183399 5.19123 -0.008314 82.7004 4.15335 8.7546 -3.91529 -1.46224 26.3833 0.0 0.0 0.0 37.0855 21.8334 -14.8261 -17.5777 0.316608 2.66831 38.7516 -16.8847 -5.11782 -1.13663 0.0 0.0 -0.0 0.0 -0.0 47.764 -1.73332 -10.9657 -66.8282 2.98063 -9.23253 19.7701 -10.1827 2.70595 36.8772 -0.0 -0.0 0.0 0.0 0.0 
2905.2773485 684.499 -1920.27966086 -25.4851734296 36.7383570465 28.5535167509 9.55575 -0.801887 -3.32117 9.56169 -0.589051 -3.3654 9.58312 -0.439619 -3.38813 9.56841 -0.968908 -3.27639 -12.9933 -6.09988 6.73754 -13.0224 -15.8219 4.62022 -0.0 0.0 -0.0 9.09573 -5.05497 17.9037 -2.74835 -12.4809 66.2337 0.76262 -20.6955 0.13925 85.2232 -4.45327 -8.87637 1.7628 9.76878 15.5644 -0.0 0.0 -0.0 1.06856 -19.4927 -3.85848 83.1198 -64.2754 11.7804 0.192654 5.45166 -0.00917244 82.6874 4.15182 8.75394 -2.12668 5.3442 16.8436 0.0 0.0 0.0 34.6321 22.6572 -15.0593 -14.3347 0.320096 2.17082 39.082 -14.9999 -5.08388 2.83105 -0.0 -0.0 -0.0 0.0 -0.0 54.5369 -3.11855 -11.9393 -61.1882 2.32965 -8.65504 27.8923 -7.45765 3.65926 30.4562 -0.0 -0.0 0.0 0.0 0.0 
2844.65994127 684.354 -1947.24560771 -28.5505669518 40.6970501669 32.0405330766 9.61274 -0.748479 -3.47864 9.61932 -0.525748 -3.51915 9.63705 -0.372824 -3.53859 9.62078 -0.92667 -3.43551 -15.4543 -3.82344 4.65413 -15.4867 -10.0472 3.09172 -0.0 0.0 -0.0 10.4187 -10.017 20.752 0.317178 -14.2516 62.2461 1.26476 -32.0668 0.363476 80.2503 -3.86744 -8.62382 4.16064 -7.6864 25.6581 -0.0 0.0 -0.0 2.51758 -19.0221 -5.9911 90.2259 -58.6283 25.6993 0.184982 5.23579 -0.00845795 85.192 4.44953 8.87495 -1.86382 13.5353 18.6 0.0 0.0 0.0 30.4926 17.1037 -14.0445 -13.7475 0.317717 2.08077 38.9366 -18.9641 -5.21378 11.5638 -0.0 -0.0 -0.0 0.0 -0.0 56.6167 -2.27115 -11.6547 -43.0031 0.668793 -6.41349 31.6474 -21.262 4.20999 30.4045 -0.0 -0.0 0.0 0.0 0.0 
2822.68233983 684.588 -1961.56791755 -28.5137651933 42.1573888069 32.0296930248 9.57839 -0.776892 -3.46544 9.5849 -0.554942 -3.50778 9.60449 -0.400529 -3.52872 9.58838 -0.952472 -3.4214 -14.0582 -4.66921 7.26104 -14.0429 -13.3332 5.43089 -0.0 0.0 -0.0 10.5718 -11.4806 21.0704 0.428193 -13.4968 62.0272 1.31226 -33.0245 0.38903 75.7271 -3.35528 -8.35079 3.57274 -5.12423 22.4843 -0.0 0.0 -0.0 2.98753 -20.9697 -6.75429 89.3399 -56.6617 26.1355 0.202399 5.72563 -0.0101214 85.1705 4.44695 8.87396 -1.54117 20.0031 18.9986 0.0 0.0 0.0 30.3705 18.7171 -15.2366 -18.1795 0.312863 2.76057 38.1023 -22.7219 -5.30176 14.5381 -0.0 -0.0 -0.0 0.0 -0.0 54.2179 -2.51228 -11.3711 -32.8632 0.076209 -4.97431 30.0982 -26.4789 4.15646 40.1388 -0.0 -0.0 0.0 0.0 0.0 
2822.66155588 684.588 -1961.54271869 -28.515526374 42.1609690432 32.032316982 9.57839 -0.776892 -3.46544 9.5849 -0.554942 -3.50778 9.60449 -0.400529 -3.52872 9.58838 -0.952472 -3.4214 -14.0582 -4.66921 7.26104 -14.0429 -13.3332 5.43089 -0.0 0.0 -0.0 10.5718 -11.4806 21.0704 0.428193 -13.4968 62.0272 1.31226 -33.0245 0.38903 75.7271 -3.35528 -8.35079 3.57274 -5.12423 22.4843 -0.0 0.0 -0.0 2.98753 -20.9697 -6.75429 89.3399 -56.6617 26.1355 0.202399 5.72563 -0.0101214 85.1705 4.44695 8.87396 -1.54117 20.0031 18.9986 0.0 0.0 0.0 30.3705 18.7171 -15.2366 -18.1795 0.312863 2.76057 38.1023 -22.7219 -5.30176 14.5381 -0.0 -0.0 -0.0 0.0 -0.0 54.2179 -2.51228 -11.3711 -32.8632 0.076209 -4.97431 30.0982 -26.4789 4.15646 40.1388 -0.0 -0.0 0.0 0.0 0.0 
2812.50228702 683.764 -1971.96746699 -28.849124916 44.418008614 32.6593512093 9.02343 -0.794918 -3.47412 9.02996 -0.57238 -3.51759 9.05169 -0.383345 -3.54315 9.0354 -0.937778 -3.43835 -14.1676 -2.92001 6.94455 -14.1044 -9.79649 5.67572 -0.0 0.0 -0.0 11.3422 -15.622 22.6775 -0.806402 -14.853 58.5179 1.41544 -35.0349 0.446781 81.128 -3.96921 -8.67207 3.12661 -7.62709 18.1676 -0.0 0.0 -0.0 3.54846 -19.0861 -7.54511 90.1474 -56.8633 30.1086 0.206707 5.84666 -0.0105557 85.2022 4.45075 8.87541 -1.46145 15.8376 16.7403 0.0 0.0 0.0 31.5141 22.1619 -16.5623 -19.1521 0.304764 2.90958 38.1258 -22.7523 -5.3055 20.4739 -0.0 -0.0 -0.0 0.0 -0.0 49.8216 -6.20755 -10.688 -14.1039 -0.319271 -2.13542 23.4432 -27.215 3.35814 39.6711 -0.0 -0.0 0.0 0.0 0.0 
2812.74019181 683.764 -1972.25374939 -28.8278644208 44.3785777793 32.6289635366 9.02343 -0.794918 -3.47412 9.02996 -0.57238 -3.51759 9.05169 -0.383345 -3.54315 9.0354 -0.937778 -3.43835 -14.1676 -2.92001 6.94455 -14.1044 -9.79649 5.67572 -0.0 0.0 -0.0 11.3422 -15.622 22.6775 -0.806402 -14.853 58.5179 1.41544 -35.0349 0.446781 81.128 -3.96921 -8.67207 3.12661 -7.62709 18.1676 -0.0 0.0 -0.0 3.54846 -19.0861 -7.54511 90.1474 -56.8633 30.1086 0.206707 5.84666 -0.0105557 85.2022 4.45075 8.87541 -1.46145 15.8376 16.7403 0.0 0.0 0.0 31.5141 22.1619 -16.5623 -19.1521 0.304764 2.90958 38.1258 -22.7523 -5.3055 20.4739 -0.0 -0.0 -0.0 0.0 -0.0 49.8216 -6.20755 -10.688 -14.1039 -0.319271 -2.13542 23.4432 -27.215 3.35814 39.6711 -0.0 -0.0 0.0 0.0 0.0 
2814.38615518 683.764 -1974.2219706 -28.6824971649 44.1065670987 32.4206114296 9.02343 -0.794918 -3.47412 9.02996 -0.57238 -3.51759 9.05169 -0.383345 -3.54315 9.0354 -0.937778 -3.43835 -14.1676 -2.92001 6.94455 -14.1044 -9.79649 5.67572 -0.0 0.0 -0.0 11.3422 -15.622 22.6775 -0.806402 -14.853 58.5179 1.41544 -35.0349 0.446781 81.128 -3.96921 -8.67207 3.12661 -7.62709 18.1676 -0.0 0.0 -0.0 3.54846 -19.0861 -7.54511 90.1474 -56.8633 30.1086 0.206707 5.84666 -0.0105557 85.2022 4.45075 8.87541 -1.46145 15.8376 16.7403 0.0 0.0 0.0 31.5141 22.1619 -16.5623 -19.1521 0.304764 2.90958 38.1258 -22.7523 -5.3055 20.4739 -0.0 -0.0 -0.0 0.0 -0.0 49.8216 -6.20755 -10.688 -14.1039 -0.319271 -2.13542 23.4432 -27.215 3.35814 39.6711 -0.0 -0.0 0.0 0.0 0.0 
2803.81652676 679.393 -1981.98532082 -30.0526263846 46.1791871763 33.9730160296 8.718 -0.940394 -3.41182 8.72418 -0.72152 -3.46466 8.75545 -0.517258 -3.50094 8.73993 -1.06336 -3.37556 -14.0305 -3.96187 4.82443 -14.0477 -10.5006 3.33473 -0.0 0.0 -0.0 11.272 -15.0515 22.541 1.91251 -14.7056 59.641 1.46029 -35.8791 0.472797 85.294 -4.46176 -8.8796 4.01421 -10.443 23.2532 -0.0 0.0 -0.0 3.23687 -22.8519 -7.15021 90.3013 -56.1043 28.0141 0.193221 5.46761 -0.00922628 85.1241 4.44139 8.87184 -1.50212 19.8724 18.6743 0.0 0.0 0.0 31.061 21.411 -16.8554 -20.0394 0.295168 3.04539 37.9879 -26.3561 -5.48412 23.2874 -0.0 -0.0 -0.0 0.0 -0.0 48.8249 -4.94114 -9.91577 -6.57857 -0.214424 -0.986295 17.5417 -27.5663 2.58022 29.7217 -0.0 -0.0 0.0 0.0 0.0 
2788.16368741 679.718 -1992.42621503 -30.5493575629 46.4313277445 34.8388125573 8.72936 -0.974834 -3.42788 8.73558 -0.75487 -3.48287 8.76898 -0.550385 -3.52094 8.75336 -1.09923 -3.39008 -13.9831 -4.65405 4.04828 -14.0334 -11.3485 2.37916 -0.0 0.0 -0.0 11.4026 -16.1469 22.7918 3.79375 -15.1496 59.8771 1.34349 -33.6432 0.406194 82.3017 -4.10646 -8.73416 3.90322 -12.7705 21.3049 -0.0 0.0 -0.0 3.34936 -22.7755 -7.30684 90.0994 -56.5008 27.9917 0.200411 5.66975 -0.00992396 85.0975 4.4382 8.87062 -1.14246 20.6593 16.5058 0.0 0.0 0.0 29.9648 19.8848 -16.833 -20.0495 0.295048 3.04693 37.7528 -28.0268 -5.56175 25.4774 -0.0 -0.0 -0.0 0.0 -0.0 47.1367 -4.47472 -9.4394 1.69557 0.0735266 0.249787 7.42022 -19.9512 1.08713 34.6614 -0.0 -0.0 0.0 0.0 0.0 
